<?xml version="1.0" standalone="no"?>
<!DOCTYPE svg PUBLIC "-//W3C//DTD SVG 20010904//EN"
 "http://www.w3.org/TR/2001/REC-SVG-20010904/DTD/svg10.dtd">
<svg version="1.0" xmlns="http://www.w3.org/2000/svg"
 width="660.000000pt" height="660.000000pt" viewBox="0 0 660.000000 660.000000"
 preserveAspectRatio="xMidYMid meet">
<metadata>
Created by potrace 1.14, written by Peter Selinger 2001-2017
</metadata>
<g transform="translate(0.000000,660.000000) scale(0.100000,-0.100000)"
fill="#000000" stroke="none">
<path d="M0 4995 l0 -1406 456 -452 c250 -249 644 -639 874 -867 230 -228 763
-757 1185 -1175 421 -418 772 -761 778 -763 12 -2 147 130 1727 1698 419 415
940 932 1158 1148 l397 393 1 1405 c1 772 0 1404 -2 1404 -2 0 -133 -129 -291
-286 -278 -275 -1221 -1211 -2416 -2395 l-571 -567 -103 102 c-56 55 -461 457
-900 893 -439 435 -940 931 -1113 1103 -173 171 -510 505 -747 741 l-433 430
0 -1406z"/>
<path d="M0 1592 l0 -1382 1197 2 1198 3 -1 195 -1 195 -89 87 c-117 115 -665
657 -1564 1548 -402 399 -733 727 -736 729 -2 2 -4 -617 -4 -1377z"/>
<path d="M6143 2542 c-237 -235 -775 -768 -1195 -1184 l-764 -758 0 -195 0
-195 1118 -1 c615 0 1134 -1 1153 -1 19 0 55 1 78 1 l44 1 0 1380 c0 759 -1
1380 -1 1380 -1 0 -195 -192 -433 -428z"/>
</g>
</svg>
